HIERARCHY
ROOT pelvis
{
  OFFSET 0 100 0
  CHANNELS 6 Xposition Yposition Zposition Zrotation Xrotation Yrotation
  JOINT pelvis_right_femur
  {
    OFFSET -10.78128 -3.44521 -0.5502486
    CHANNELS 3 Zrotation Xrotation Yrotation
    JOINT right_femur_tibia
    {
      OFFSET -0.8047443 -44.0398 -0.1307829
      CHANNELS 3 Zrotation Xrotation Yrotation
      JOINT right_tibia_foot
      {
        OFFSET 3.006224 -47.83518 -5
        CHANNELS 3 Zrotation Xrotation Yrotation
        End Site
        {
          OFFSET 0 -5 15
        }
      }
    }
  }
  JOINT pelvis_left_femur
  {
    OFFSET 10.78128 -3.44521 -0.5502486
    CHANNELS 3 Zrotation Xrotation Yrotation
    JOINT left_femur_tibia
    {
      OFFSET 0.8047443 -44.0398 -0.1307829
      CHANNELS 3 Zrotation Xrotation Yrotation
      JOINT left_tibia_foot
      {
        OFFSET -4.370144 -48.10324 -4.275266
        CHANNELS 3 Zrotation Xrotation Yrotation
        End Site
        {
          OFFSET 0 -5 15
        }
      }
    }
  }
  JOINT pelvis_spine1
  {
    OFFSET 0 6.468898 -3.129235
    CHANNELS 3 Zrotation Xrotation Yrotation
    JOINT spine1
    {
      OFFSET 0 23.15396 4.99043
      CHANNELS 3 Zrotation Xrotation Yrotation
      JOINT spine2
      {
        OFFSET 0 20.79997 -5.064912
        CHANNELS 3 Zrotation Xrotation Yrotation
        JOINT neck
        {
          OFFSET 0 14.38658 9.616178
          CHANNELS 3 Zrotation Xrotation Yrotation
          End Site
          {
            OFFSET 0 20 0
          }
        }
      }
      JOINT right_manubrium
      {
        OFFSET -5.722621 16.35077 3.967754
        CHANNELS 3 Zrotation Xrotation Yrotation
        JOINT right_clavicle
        {
          OFFSET -13.16364 1.694482 -4.693211
          CHANNELS 3 Zrotation Xrotation Yrotation
          JOINT right_humerus
          {
            OFFSET -28.5034 -0.3100689 -2.792744
            CHANNELS 3 Zrotation Xrotation Yrotation
            JOINT right_radius
            {
              OFFSET -25.15693 0.02248979 -1.271978
              CHANNELS 3 Zrotation Xrotation Yrotation
              End Site
              {
                OFFSET -15 0 0
              }
            }
          }
        }
      }
      JOINT left_manubrium
      {
        OFFSET 5.722621 16.35077 3.967754
        CHANNELS 3 Zrotation Xrotation Yrotation
        JOINT left_clavicle
        {
          OFFSET 13.16364 1.694482 -4.693211
          CHANNELS 3 Zrotation Xrotation Yrotation
          JOINT left_humerus
          {
            OFFSET 29.39168 -1.063119 -2.237045
            CHANNELS 3 Zrotation Xrotation Yrotation
            JOINT left_radius
            {
              OFFSET 24.59957 -0.9528479 0.9047498
              CHANNELS 3 Zrotation Xrotation Yrotation
              End Site
              {
                OFFSET 15 -0 -0
              }
            }
          }
        }
      }
    }
  }
}
MOTION
Frames: 21
Frame Time: 0.0416666666667
59.57879 102.4637 256.0351 3.740775 -7.66998 4.674474 -2.427246 25.10025 8.431814 -0 27.6186 -0 6.712316 -11.94544 -0.138794 -2.473496 -23.70182 -7.490493 -0 24.53845 -0 -8.395172 -5.573368 18.27777 -1.318782 -1.988842 9.748954 -2.61619 9.530368 -2.079068 2.594878 21.73069 3.862744 1.41628 -14.52834 6.157048 0.3073244 -21.80057 10.50549 82.16556 19.39239 -6.00626 -0 0 28.22107 -23.4604 10.07923 12.97884 4.509338 -12.45964 -2.805384 -94.81873 23.35413 27.09317 0 0 -8.087769 -4.720861 5.03833 18.94901
61.51025 102.9877 263.3204 4.188673 -7.967379 5.021061 -3.373596 23.43117 7.726442 -0 35.53563 -0 6.695009 -9.825421 -1.051753 -4.129389 -19.86639 -8.77609 -0 25.49343 -0 -8.062375 -6.187128 17.80298 -1.942715 -2.436504 9.454689 -2.574898 9.415212 -2.123742 2.697745 21.97545 3.853742 1.297335 -14.48397 6.386833 0.7332922 -20.71779 10.2602 83.05623 19.46827 -7.272652 -0 0 26.18762 -23.0763 10.11141 12.3846 4.347935 -12.31597 -2.904301 -94.02017 23.86149 26.07242 0 0 -7.85682 -4.707853 5.125056 19.03172
63.35743 104.0541 270.2569 4.651443 -8.563005 5.961046 -3.580286 19.73714 6.777333 -0 44.07033 -0 6.352896 -8.20539 -2.456908 -5.55712 -14.88787 -9.714827 -0 26.17438 -0 -7.554931 -7.49443 17.329 -2.420353 -2.343003 8.726456 -2.482821 9.428094 -2.311377 2.678973 22.37085 3.909823 1.112717 -14.34955 6.609679 1.314718 -19.59602 10.16611 84.11639 19.76265 -8.853406 -0 0 23.58207 -22.49239 10.24457 11.62593 4.175866 -12.68512 -3.081452 -92.64392 24.44772 24.11972 0 0 -8.319182 -4.462629 5.328068 18.80133
65.01159 105.5164 276.6578 4.854167 -9.306795 7.014188 -3.248973 14.17294 5.663416 -0 51.1008 -0 5.844572 -7.522148 -4.070105 -6.400809 -9.219148 -10.25012 -0 25.89229 -0 -7.055332 -9.056986 16.87387 -2.616896 -1.774085 7.614948 -2.279275 9.48397 -2.678783 2.560381 22.87017 4.06187 0.8726049 -14.12022 6.880319 1.882644 -18.5594 10.17799 85.34423 20.21127 -10.54398 -0 0 20.90725 -21.75204 10.43567 10.83946 4.030488 -13.43172 -3.361452 -90.82842 25.04017 21.35705 0 0 -9.371708 -4.006045 5.633913 18.30351
66.48855 107.1751 282.6029 4.776402 -9.921031 8.119024 -2.627366 7.380647 4.602033 -0 54.60604 -0 5.237381 -7.561846 -5.405155 -6.640306 -3.37618 -10.47331 -0 24.52221 -0 -6.732377 -10.48543 16.37432 -2.584312 -1.081454 6.214189 -1.945047 9.482887 -3.325817 2.424156 23.41165 4.284638 0.6246261 -13.82136 7.228115 2.1725 -17.56865 10.09171 86.72326 20.6883 -12.3036 -0 0 18.5687 -20.93711 10.61821 10.14508 4.023622 -14.31027 -3.707843 -88.81775 25.55852 18.045 0 0 -10.92467 -3.395664 6.029859 17.59124
67.86454 108.6365 288.1094 4.594829 -10.05341 9.345513 -2.009528 0.4661657 3.76224 -0 53.82244 -0 4.532297 -7.615931 -6.364713 -6.54226 2.093512 -10.6039 -0 22.26255 -0 -6.587264 -11.78545 15.72436 -2.488693 -0.6014449 4.744861 -1.531115 9.285044 -4.245675 2.361717 23.87888 4.513561 0.4229949 -13.51724 7.636705 2.013871 -16.55488 9.757247 88.13189 21.07671 -14.13501 -0 0 16.70784 -20.12954 10.72573 9.582072 4.238168 -15.22983 -4.052898 -86.76551 25.96436 14.37838 0 0 -12.97144 -2.694965 6.508778 16.6756
69.15568 109.5409 293.341 4.434851 -9.720801 10.70028 -1.744634 -5.976204 3.22662 -0 48.94698 -0 3.677722 -7.519932 -7.071828 -6.291913 6.959233 -10.76576 -0 19.66207 -0 -6.530133 -13.13814 14.92333 -2.488794 -0.3331189 3.419208 -1.074813 8.896385 -5.325508 2.44868 24.22973 4.641552 0.315234 -13.24219 8.024015 1.461658 -15.5527 9.190778 89.35291 21.3356 -15.97145 -0 0 15.2 -19.38403 10.72992 9.09385 4.660077 -16.20679 -4.346507 -84.69957 26.25781 10.52514 0 0 -15.41139 -1.935176 7.064445 15.55564
70.39015 109.7165 298.6051 4.392717 -9.096852 12.07715 -1.980841 -11.61674 2.914555 -0 41.00656 -0 2.654811 -7.419929 -7.746157 -6.060833 11.24868 -10.93135 -0 17.39551 -0 -6.48813 -14.64632 14.05211 -2.665516 -0.2366228 2.359344 -0.6135947 8.398472 -6.407038 2.668221 24.43467 4.624675 0.2967749 -13.06116 8.316828 0.7062508 -14.53224 8.509577 90.30572 21.48547 -17.79684 -0 0 13.77039 -18.69547 10.64553 8.573414 5.225671 -17.22063 -4.54436 -82.67717 26.43852 6.689862 0 0 -18.07992 -1.119964 7.68668 14.26901
71.59876 109.1754 304.063 4.505154 -8.347318 13.26014 -2.574406 -16.32078 2.588021 -0 31.55176 -0 1.490087 -7.506505 -8.501184 -5.98905 15.03389 -10.97668 -0 15.95898 -0 -6.45154 -16.25913 13.21081 -2.987075 -0.2394996 1.653344 -0.1943901 7.878267 -7.276534 2.93643 24.48749 4.490559 0.3258861 -13.02733 8.480166 -0.02472458 -13.46782 7.88928 91.04264 21.58 -19.57396 -0 0 12.16309 -18.00449 10.51409 7.918111 5.850458 -18.24414 -4.589013 -80.81287 26.50214 3.091651 0 0 -20.78737 -0.2447668 8.352076 12.89062
72.72915 108.1025 309.6359 4.674447 -7.608527 14.01605 -3.144811 -20.10242 2.053622 -0 22.30422 -0 0.2268056 -7.948603 -9.223029 -6.061359 18.29611 -10.81523 -0 15.56793 -0 -6.471458 -17.77428 12.48801 -3.316402 -0.171422 1.337935 0.1576512 7.400686 -7.745512 3.177641 24.44863 4.28432 0.3646018 -13.12561 8.509531 -0.5324954 -12.45149 7.501601 91.62429 21.68562 -21.15843 -0 0 10.28613 -17.24292 10.38328 7.08591 6.425943 -19.28298 -4.4463 -79.21715 26.45993 -0.06722596 0 0 -23.29685 0.673011 9.020008 11.51652
73.73627 106.8027 315.3527 4.707818 -6.964209 14.33772 -3.209178 -22.77305 1.491384 -0 15.04268 -0 -1.046409 -8.675852 -9.752063 -6.058255 20.97177 -10.52999 -0 16.33397 -0 -6.635082 -18.84715 11.94805 -3.49314 -0.007711399 1.264916 0.4626782 6.970918 -7.839862 3.364184 24.39215 4.052336 0.395852 -13.33275 8.445363 -0.7107958 -11.56203 7.398657 92.11602 21.83602 -22.42684 -0 0 8.254783 -16.38287 10.28974 6.132107 6.823426 -20.26411 -4.179383 -77.99334 26.36466 -2.575352 0 0 -25.30723 1.566144 9.645621 10.26445
74.61155 105.5443 321.4097 4.523361 -6.564118 14.6482 -2.582147 -24.14449 1.365905 -0 11.42368 -0 -2.187436 -9.166742 -10.16324 -5.628282 23.11429 -10.33426 -0 18.48 -0 -7.025367 -19.07324 11.62832 -3.411687 0.02536378 1.215106 0.7413544 6.578115 -7.716164 3.528589 24.34871 3.835477 0.430127 -13.65102 8.371364 -0.6089123 -10.75115 7.492439 92.61535 22.00489 -23.35776 -0 0 6.297063 -15.43791 10.24417 5.164085 6.939067 -20.94695 -3.898258 -77.30909 26.30989 -4.194718 0 0 -26.52197 2.34715 10.20031 9.248823
75.40466 104.5975 327.9838 4.086651 -6.4449 15.11423 -1.295199 -23.87859 2.019654 -0 11.73222 -0 -3.116321 -9.05096 -10.40946 -4.702241 24.51857 -10.32023 -0 22.46188 -0 -7.644424 -18.01796 11.67309 -3.022637 -0.2297767 1.00881 0.9938138 6.353329 -7.581039 3.66423 24.43865 3.593726 0.4735753 -13.9538 8.227089 -0.4147053 -10.09327 7.609104 93.05951 22.17384 -23.83901 -0 0 4.744168 -14.51313 10.22454 4.33939 6.844855 -21.06696 -3.602751 -77.33688 26.39486 -4.684718 0 0 -26.7399 2.932705 10.67944 8.56603
76.17689 104.1762 335.044 3.466487 -6.740508 15.38039 0.3143265 -22.08329 3.217737 -0 14.35137 -0 -3.910851 -8.67346 -10.41757 -3.593917 24.75938 -10.36484 -0 28.6187 -0 -8.33711 -15.70152 12.31526 -2.386387 -0.6483426 0.750895 1.19975 6.355798 -7.491638 3.764156 24.68316 3.319944 0.5252509 -14.18601 7.995579 -0.2698686 -9.730805 7.68433 93.27634 22.35328 -23.74054 -0 0 3.856953 -13.74932 10.1987 3.790455 6.613489 -20.56891 -3.292408 -78.1234 26.65644 -3.92645 0 0 -25.86373 3.254882 11.08684 8.276218
76.95305 104.3671 342.3079 2.911648 -7.584667 15.00937 1.853755 -18.8427 4.464364 -0 17.34757 -0 -4.695087 -8.630846 -10.18706 -2.692704 23.14504 -10.28638 -0 36.59393 -0 -8.81334 -12.86723 13.67316 -1.714325 -0.8393753 0.740002 1.338937 6.63501 -7.313879 3.808061 25.08245 3.064953 0.5708853 -14.33307 7.729836 -0.1421872 -9.808604 7.81571 93.07598 22.57105 -22.95578 -0 0 3.714738 -13.25853 10.13889 3.577722 6.212956 -19.67887 -3.045982 -79.55676 27.04425 -2.098624 0 0 -23.96213 3.276975 11.43027 8.374291
77.70425 105.0652 349.3776 2.617336 -8.86729 14.00409 3.068177 -14.31629 5.351044 -0 19.37625 -0 -5.461079 -9.229219 -9.814104 -2.345728 19.34586 -9.945139 -0 45.20271 -0 -8.919107 -10.28381 15.53709 -1.251824 -0.5381291 1.147888 1.406118 7.151299 -6.945762 3.820621 25.5992 2.850472 0.6164883 -14.39089 7.482936 0.04402348 -10.38268 8.101632 92.3706 22.83089 -21.47244 -0 0 4.221616 -13.10472 10.02497 3.695523 5.627625 -18.73266 -2.955393 -81.42881 27.45829 0.4115716 0 0 -21.28101 3.009295 11.71888 8.787313
78.39591 106.0599 355.9871 2.615203 -10.15757 12.81976 3.777629 -8.978026 5.743338 -0 19.75065 -0 -6.063826 -10.28925 -9.38868 -2.654993 13.90562 -9.396266 -0 52.90469 -0 -8.73663 -8.183498 17.4749 -1.152 0.07671561 1.910137 1.39207 7.692197 -6.415965 3.88262 26.1057 2.641484 0.6957338 -14.40378 7.277003 0.2679489 -11.29858 8.520299 91.28338 23.07592 -19.46621 -0 0 5.173952 -13.2992 9.845619 4.100188 4.966354 -17.94467 -3.020119 -83.55805 27.79791 3.260799 0 0 -18.18687 2.517066 11.9609 9.392269
79.03995 107.2704 362.1069 2.928586 -10.99008 11.78416 3.778763 -3.267988 5.813108 -0 18.46355 -0 -6.419033 -11.35854 -8.829625 -3.211784 7.64602 -8.953353 -0 58.19522 -0 -8.302211 -6.682817 19.16036 -1.436599 0.643599 2.908504 1.254935 8.055317 -5.705767 3.993985 26.48887 2.448395 0.8053625 -14.45405 7.122719 0.43869 -12.24528 8.997183 90.08586 23.21706 -17.24069 -0 0 6.392702 -13.80594 9.59785 4.750209 4.417231 -17.32804 -3.120897 -85.85861 27.97522 6.295081 0 0 -15.0678 1.912106 12.16475 10.04304
79.62512 108.4158 367.7095 3.336452 -11.33511 10.78329 3.302793 2.298614 5.684504 -0 15.93613 -0 -6.562882 -12.25405 -8.053524 -3.654879 0.7580272 -8.788776 -0 58.82947 -0 -7.610592 -6.032444 20.37059 -1.910043 1.159552 3.882773 0.9990254 8.206684 -4.879694 4.03629 26.74172 2.330901 0.8862366 -14.5405 6.990591 0.3667565 -13.27049 9.422358 88.81749 23.22962 -14.83078 -0 0 7.963947 -14.61579 9.279442 5.682692 4.233041 -16.80684 -3.122881 -88.16904 27.92048 9.426662 0 0 -12.20691 1.318158 12.34221 10.61671
80.19612 109.0861 372.9917 3.476789 -11.13284 9.579459 2.794051 7.278153 5.263211 -0 12.86693 -0 -6.623141 -13.08505 -7.103605 -3.692411 -5.917893 -8.762797 -0 54.13231 -0 -6.79499 -6.172367 21.2755 -2.247531 1.431347 4.644833 0.6833438 8.048261 -4.034499 3.892722 26.84661 2.366776 0.8820616 -14.67047 6.873871 0.01238312 -14.61939 9.67725 87.39885 23.12148 -12.12645 -0 0 10.13332 -15.72227 8.904515 7.024626 4.419186 -16.22086 -2.937538 -90.40668 27.60598 12.64263 0 0 -9.683488 0.8173252 12.50152 11.05117
80.78915 108.9938 378.1511 3.209243 -10.55085 8.230644 2.568163 11.55646 4.479988 -0 10.00194 -0 -6.709767 -13.96654 -6.039365 -3.040902 -11.78569 -8.541912 -0 45.16207 -0 -6.107362 -6.617014 22.22856 -2.289997 1.451589 5.068638 0.4131279 7.70855 -3.325271 3.559833 26.77172 2.595836 0.7989315 -14.9002 6.812072 -0.5416893 -16.16319 9.668169 86.00982 22.88652 -9.338818 -0 0 12.77972 -17.03497 8.483041 8.741262 4.841309 -15.55297 -2.593782 -92.44777 27.05856 15.81169 0 0 -7.484025 0.4704516 12.65131 11.33043
